<svg xmlns="http://www.w3.org/2000/svg" width="1080" height="1350" viewBox="0 0 1080 1350"><defs><linearGradient id="bg" x1="0" y1="0" x2="1" y2="1"><stop stop-color="#050711"/><stop offset=".55" stop-color="#10182d"/><stop offset="1" stop-color="#02030a"/></linearGradient><radialGradient id="orb" cx="35%" cy="15%" r="70%"><stop stop-color="#1ee8ff" stop-opacity=".9"/><stop offset=".52" stop-color="#9b5cff" stop-opacity=".25"/><stop offset="1" stop-color="#9b5cff" stop-opacity="0"/></radialGradient></defs><rect width="1080" height="1350" fill="url(#bg)"/><rect width="1080" height="760" fill="url(#orb)"/><g opacity=".16" stroke="#fff"><path d="M0 145H1080M0 265H1080M0 385H1080M0 505H1080M0 625H1080"/><path d="M120 0V760M240 0V760M360 0V760M480 0V760M600 0V760M720 0V760M840 0V760M960 0V760"/></g><rect x="90" y="120" width="900" height="610" rx="44" fill="#0b1020" opacity=".86" stroke="rgba(255,255,255,.18)"/><circle cx="750" cy="260" r="170" fill="#9b5cff" opacity=".45"/><circle cx="640" cy="220" r="100" fill="#1ee8ff" opacity=".8"/><path d="M150 510 C300 330 430 560 590 390 S745 330 880 500" fill="none" stroke="#1ee8ff" stroke-width="16" opacity=".9"/><text x="148" y="192" fill="#1ee8ff" font-family="Arial, Helvetica, sans-serif" font-size="28" font-weight="900" letter-spacing="4">CHIPS</text><text x="148" y="650" fill="#f7f9ff" font-family="Arial, Helvetica, sans-serif" font-size="42" font-weight="900">Geekish sourced read</text><rect y="760" width="1080" height="590" fill="#080d18"/><text x="70" y="850" fill="#f7f9ff" font-family="Arial, Helvetica, sans-serif" font-size="62" font-weight="900"><tspan x="70" dy="0">AMD is bringing gamer-grade</tspan>
<tspan x="70" dy="76">cache tech to serious</tspan>
<tspan x="70" dy="76">workstations</tspan></text><circle cx="104" cy="1202" r="34" fill="#1ee8ff"/><text x="104" y="1212" text-anchor="middle" fill="#03111a" font-family="Arial" font-size="24" font-weight="900">NB</text><text x="156" y="1195" fill="#f7f9ff" font-family="Arial" font-size="26" font-weight="800">Geekish • Nova Byte</text><text x="156" y="1230" fill="#9ba9c1" font-family="Arial" font-size="24">Read the full quick take at thegeekish.com</text><text x="70" y="1285" fill="#1ee8ff" font-family="Arial" font-size="34" font-weight="900">THEGEEKISH.COM</text></svg>