<svg xmlns="http://www.w3.org/2000/svg" width="1080" height="1350" viewBox="0 0 1080 1350">
  <defs>
    <linearGradient id="bg" x1="0" y1="0" x2="1" y2="1"><stop stop-color="#101114"/><stop offset=".55" stop-color="#475467"/><stop offset="1" stop-color="#f7c948"/></linearGradient>
    <radialGradient id="glow" cx="32%" cy="15%" r="75%"><stop stop-color="#fffaf3" stop-opacity=".7"/><stop offset=".42" stop-color="#9ad7ff" stop-opacity=".25"/><stop offset="1" stop-color="#9ad7ff" stop-opacity="0"/></radialGradient>
  </defs>
  <rect width="1080" height="1350" fill="url(#bg)"/>
  <rect width="1080" height="760" fill="url(#glow)"/>
  <rect x="330" y="96" width="420" height="610" rx="70" fill="#0b0d10" stroke="#f7f9ff" stroke-width="8"/>
  <rect x="366" y="150" width="348" height="500" rx="44" fill="#141a21"/>
  <circle cx="522" cy="290" r="76" fill="#222c36" stroke="#f7f9ff" stroke-width="18"/>
  <circle cx="522" cy="290" r="38" fill="#7dd3fc"/>
  <circle cx="562" cy="254" r="14" fill="#fffaf3"/>
  <rect x="400" y="432" width="280" height="26" rx="13" fill="#fffaf3" opacity=".9"/>
  <circle cx="586" cy="445" r="28" fill="#f7c948"/>
  <text x="400" y="414" fill="#aeb7c2" font-family="Arial, Helvetica, sans-serif" font-size="26" font-weight="900">TEXTURE</text>
  <rect x="400" y="536" width="280" height="26" rx="13" fill="#fffaf3" opacity=".9"/>
  <circle cx="472" cy="549" r="28" fill="#ff5a3d"/>
  <text x="400" y="518" fill="#aeb7c2" font-family="Arial, Helvetica, sans-serif" font-size="26" font-weight="900">GRAIN</text>
  <g fill="#f7f9ff" opacity=".25">
    <circle cx="184" cy="156" r="5"/><circle cx="210" cy="242" r="4"/><circle cx="882" cy="188" r="5"/><circle cx="870" cy="462" r="4"/><circle cx="235" cy="548" r="5"/><circle cx="812" cy="616" r="4"/>
  </g>
  <rect y="760" width="1080" height="590" fill="#151515"/>
  <text x="70" y="852" fill="#f7f9ff" font-family="Arial, Helvetica, sans-serif" font-size="62" font-weight="900"><tspan x="70" dy="0">Camera</tspan><tspan x="70" dy="76">controls,</tspan><tspan x="70" dy="76">fine print</tspan></text>
  <circle cx="104" cy="1202" r="34" fill="#f7c948"/><text x="104" y="1212" text-anchor="middle" fill="#151515" font-family="Arial" font-size="24" font-weight="900">MC</text>
  <text x="156" y="1195" fill="#f7f9ff" font-family="Arial" font-size="26" font-weight="800">Geekish - Mika Circuit</text>
  <text x="156" y="1230" fill="#aeb7c2" font-family="Arial" font-size="24">Read the full quick take at thegeekish.com</text>
  <text x="70" y="1285" fill="#7dd3fc" font-family="Arial" font-size="34" font-weight="900">THEGEEKISH.COM</text>
</svg>
