<svg xmlns="http://www.w3.org/2000/svg" width="1080" height="1350" viewBox="0 0 1080 1350"><defs><linearGradient id="bg" x1="0" y1="0" x2="1" y2="1"><stop stop-color="#07111f"/><stop offset=".5" stop-color="#0f766e"/><stop offset="1" stop-color="#eab308"/></linearGradient><radialGradient id="glow" cx="30%" cy="14%" r="82%"><stop stop-color="#f8fafc" stop-opacity=".8"/><stop offset=".38" stop-color="#5eead4" stop-opacity=".26"/><stop offset="1" stop-color="#5eead4" stop-opacity="0"/></radialGradient></defs><rect width="1080" height="1350" fill="url(#bg)"/><rect width="1080" height="760" fill="url(#glow)"/><g opacity=".2" stroke="#fff" stroke-width="2"><path d="M0 152H1080M0 304H1080M0 456H1080M0 608H1080"/><path d="M135 0V760M270 0V760M405 0V760M540 0V760M675 0V760M810 0V760M945 0V760"/></g><rect x="132" y="128" width="816" height="536" rx="44" fill="#07111f" opacity=".94" stroke="#fde68a" stroke-width="5"/><g transform="translate(288 205) rotate(-13 260 210)"><rect x="220" y="40" width="96" height="420" rx="48" fill="#f8fafc"/><rect x="236" y="64" width="64" height="126" rx="32" fill="#0f766e"/><circle cx="268" cy="128" r="22" fill="#07111f"/><rect x="210" y="434" width="116" height="62" rx="31" fill="#cbd5e1"/><path d="M318 86C392 112 430 168 442 248" stroke="#5eead4" stroke-width="18" stroke-linecap="round" fill="none"/><path d="M342 248C398 284 434 332 450 394" stroke="#fde68a" stroke-width="14" stroke-linecap="round" fill="none"/></g><g fill="#38bdf8" opacity=".88"><path d="M704 212C704 212 674 260 674 286C674 312 694 328 704 328C714 328 734 312 734 286C734 260 704 212 704 212Z"/><path d="M800 396C800 396 774 438 774 460C774 482 790 496 800 496C810 496 826 482 826 460C826 438 800 396 800 396Z"/></g><g transform="translate(186 188)"><rect width="252" height="104" rx="28" fill="#f8fafc"/><text x="28" y="44" fill="#07111f" font-family="Arial, Helvetica, sans-serif" font-size="26" font-weight="900">CAMERAJET</text><text x="28" y="80" fill="#0f766e" font-family="Arial, Helvetica, sans-serif" font-size="30" font-weight="900">UNKNOWN</text></g><path d="M742 552H866M804 490V614" stroke="#eab308" stroke-width="18" stroke-linecap="round"/><rect y="760" width="1080" height="590" fill="#07111f"/><text x="70" y="850" fill="#f8fafc" font-family="Arial, Helvetica, sans-serif" font-size="58" font-weight="900"><tspan x="70" dy="0">$500 smart</tspan><tspan x="70" dy="72">toothbrush mystery</tspan></text><text x="70" y="1038" fill="#fde68a" font-family="Arial, Helvetica, sans-serif" font-size="34" font-weight="700"><tspan x="70" dy="0">Dyson says early batches</tspan><tspan x="70" dy="46">had a component issue</tspan></text><circle cx="104" cy="1202" r="34" fill="#eab308"/><text x="104" y="1212" text-anchor="middle" fill="#07111f" font-family="Arial" font-size="24" font-weight="900">MC</text><text x="156" y="1195" fill="#f8fafc" font-family="Arial" font-size="26" font-weight="800">Geekish - Mika Circuit</text><text x="156" y="1230" fill="#cbd5e1" font-family="Arial" font-size="24">Read the full quick take at thegeekish.com</text><text x="70" y="1285" fill="#5eead4" font-family="Arial" font-size="34" font-weight="900">THEGEEKISH.COM</text></svg>
