<svg xmlns="http://www.w3.org/2000/svg" width="1200" height="630" viewBox="0 0 1200 630" role="img" aria-labelledby="title desc">
  <title id="title">Google Find Hub Android phone illustration</title>
  <desc id="desc">A stylized Android phone on a map with a location pin and recovery controls.</desc>
  <defs>
    <linearGradient id="bg" x1="0" y1="0" x2="1" y2="1">
      <stop offset="0" stop-color="#10223b"/>
      <stop offset="0.5" stop-color="#124c57"/>
      <stop offset="1" stop-color="#e9b44c"/>
    </linearGradient>
    <filter id="shadow" x="-20%" y="-20%" width="140%" height="140%">
      <feDropShadow dx="0" dy="22" stdDeviation="18" flood-color="#06111e" flood-opacity="0.35"/>
    </filter>
  </defs>
  <rect width="1200" height="630" fill="url(#bg)"/>
  <path d="M0 508c180-70 315-72 452-8 157 73 323 59 470-18 106-56 190-73 278-54v202H0z" fill="#f7fff7" opacity="0.18"/>
  <g stroke="#ffffff" stroke-opacity="0.18" stroke-width="4" fill="none">
    <path d="M72 162c170 30 258 100 386 84 154-20 240-130 418-78 92 27 172 81 258 70"/>
    <path d="M92 422c142-80 288-22 414-82 144-69 250-100 412-28 89 39 169 41 244 7"/>
  </g>
  <g transform="translate(428 74)" filter="url(#shadow)">
    <rect width="342" height="482" rx="48" fill="#111827"/>
    <rect x="25" y="48" width="292" height="374" rx="30" fill="#eaf8f1"/>
    <rect x="83" y="26" width="176" height="12" rx="6" fill="#344154"/>
    <circle cx="171" cy="452" r="18" fill="#344154"/>
    <path d="M171 112c-58 0-106 47-106 105 0 78 106 174 106 174s106-96 106-174c0-58-47-105-106-105z" fill="#34a853"/>
    <circle cx="171" cy="215" r="46" fill="#ffffff"/>
    <circle cx="171" cy="215" r="22" fill="#1a73e8"/>
    <rect x="72" y="330" width="198" height="42" rx="21" fill="#ffffff"/>
    <text x="111" y="358" font-family="Inter, Arial, sans-serif" font-size="20" font-weight="800" fill="#1f2937">RING PHONE</text>
  </g>
  <g transform="translate(105 156)">
    <rect width="262" height="168" rx="30" fill="#fff" opacity="0.94"/>
    <text x="34" y="58" font-family="Inter, Arial, sans-serif" font-size="28" font-weight="900" fill="#10223b">Find Hub</text>
    <text x="34" y="98" font-family="Inter, Arial, sans-serif" font-size="22" fill="#4b5563">locate, ring, secure</text>
    <text x="34" y="132" font-family="Inter, Arial, sans-serif" font-size="22" fill="#4b5563">before panic mode</text>
  </g>
  <g transform="translate(842 388)">
    <rect width="250" height="92" rx="26" fill="#111827" opacity="0.92"/>
    <text x="31" y="57" font-family="Inter, Arial, sans-serif" font-size="25" font-weight="900" fill="#fff">GEEKISH</text>
    <circle cx="203" cy="46" r="20" fill="#34a853"/>
  </g>
</svg>
