<svg xmlns="http://www.w3.org/2000/svg" width="1080" height="1350" viewBox="0 0 1080 1350">
  <defs>
    <linearGradient id="bg" x1="0" y1="0" x2="1" y2="1"><stop stop-color="#050816"/><stop offset=".52" stop-color="#1e1b4b"/><stop offset="1" stop-color="#f59e0b"/></linearGradient>
    <radialGradient id="sky" cx="50%" cy="10%" r="70%"><stop stop-color="#60a5fa" stop-opacity=".6"/><stop offset=".7" stop-color="#60a5fa" stop-opacity=".08"/><stop offset="1" stop-color="#60a5fa" stop-opacity="0"/></radialGradient>
  </defs>
  <rect width="1080" height="1350" fill="url(#bg)"/>
  <rect width="1080" height="720" fill="url(#sky)"/>
  <g fill="#fff" opacity=".75"><circle cx="160" cy="145" r="3"/><circle cx="300" cy="220" r="2"/><circle cx="880" cy="150" r="3"/><circle cx="760" cy="280" r="2"/><circle cx="530" cy="120" r="2"/><circle cx="665" cy="210" r="3"/><circle cx="250" cy="365" r="2"/></g>
  <path d="M260 470C390 290 540 220 820 130" stroke="#dbeafe" stroke-width="34" stroke-linecap="round" opacity=".26"/>
  <path d="M700 120L330 420" stroke="#fbbf24" stroke-width="18" stroke-linecap="round"/>
  <path d="M700 120L452 318" stroke="#fff7ed" stroke-width="6" stroke-linecap="round"/>
  <g transform="translate(180 285)">
    <ellipse cx="360" cy="230" rx="330" ry="158" fill="#0f172a" stroke="#93c5fd" stroke-width="14"/>
    <g stroke="#334155" stroke-width="5">
      <path d="M90 180h540M80 230h560M110 280h500"/>
      <path d="M210 100v260M310 80v300M410 80v300M510 100v260"/>
    </g>
    <ellipse cx="360" cy="230" rx="250" ry="105" fill="none" stroke="#60a5fa" stroke-width="10" opacity=".85"/>
    <path d="M220 230C320 160 420 300 520 214" fill="none" stroke="#fbbf24" stroke-width="10" stroke-linecap="round"/>
  </g>
  <text x="148" y="632" fill="#f8fafc" font-family="Arial, Helvetica, sans-serif" font-size="42" font-weight="900">Meteor in the mirror</text>
  <rect y="760" width="1080" height="590" fill="#050816"/>
  <text x="70" y="850" fill="#f8fafc" font-family="Arial, Helvetica, sans-serif" font-size="57" font-weight="900"><tspan x="70" dy="0">NASA's APOD caught</tspan><tspan x="70" dy="72">a meteor reflected in a</tspan><tspan x="70" dy="72">giant telescope mirror</tspan></text>
  <circle cx="104" cy="1202" r="34" fill="#fbbf24"/>
  <text x="104" y="1212" text-anchor="middle" fill="#050816" font-family="Arial" font-size="24" font-weight="900">MC</text>
  <text x="156" y="1195" fill="#f8fafc" font-family="Arial" font-size="26" font-weight="800">Geekish - Mika Circuit</text>
  <text x="156" y="1230" fill="#b4bfd6" font-family="Arial" font-size="24">Read the full quick take at thegeekish.com</text>
  <text x="70" y="1285" fill="#fbbf24" font-family="Arial" font-size="34" font-weight="900">THEGEEKISH.COM</text>
</svg>
