<svg xmlns="http://www.w3.org/2000/svg" width="1080" height="1350" viewBox="0 0 1080 1350"><defs><linearGradient id="bg" x1="0" y1="0" x2="1" y2="1"><stop stop-color="#0c1117"/><stop offset=".42" stop-color="#164a5a"/><stop offset="1" stop-color="#ffcf2e"/></linearGradient><radialGradient id="glow" cx="26%" cy="18%" r="72%"><stop stop-color="#ffffff" stop-opacity=".9"/><stop offset=".45" stop-color="#4dd4ff" stop-opacity=".26"/><stop offset="1" stop-color="#4dd4ff" stop-opacity="0"/></radialGradient></defs><rect width="1080" height="1350" fill="url(#bg)"/><rect width="1080" height="760" fill="url(#glow)"/><g opacity=".2" stroke="#fff"><path d="M0 150H1080M0 300H1080M0 450H1080M0 600H1080"/><path d="M180 0V760M360 0V760M540 0V760M720 0V760M900 0V760"/></g><rect x="170" y="92" width="390" height="690" rx="58" fill="#0c1117" stroke="#f7f9ff" stroke-width="8"/><rect x="205" y="150" width="320" height="560" rx="36" fill="#f7f9ff"/><rect x="245" y="206" width="240" height="76" rx="38" fill="#164a5a"/><circle cx="282" cy="244" r="22" fill="#ffcf2e"/><rect x="320" y="228" width="120" height="28" rx="14" fill="#f7f9ff"/><rect x="245" y="330" width="240" height="130" rx="28" fill="#e5f6fa"/><path d="M288 392l46 44 96-112" fill="none" stroke="#19a974" stroke-width="20" stroke-linecap="round" stroke-linejoin="round"/><rect x="245" y="500" width="240" height="118" rx="28" fill="#ffe8e0"/><text x="365" y="572" text-anchor="middle" fill="#d93025" font-family="Arial, Helvetica, sans-serif" font-size="35" font-weight="900">SCAM?</text><rect x="602" y="190" width="260" height="300" rx="42" fill="#101018" stroke="#f7f9ff" stroke-width="6"/><circle cx="732" cy="305" r="76" fill="#ffcf2e"/><path d="M732 232v73l46 35" fill="none" stroke="#101018" stroke-width="20" stroke-linecap="round" stroke-linejoin="round"/><rect x="632" y="405" width="200" height="28" rx="14" fill="#f7f9ff"/><rect x="666" y="446" width="132" height="22" rx="11" fill="#9ba9c1"/><rect y="760" width="1080" height="590" fill="#101018"/><text x="70" y="850" fill="#f7f9ff" font-family="Arial, Helvetica, sans-serif" font-size="60" font-weight="900"><tspan x="70" dy="0">Pixel Drop adds</tspan><tspan x="70" dy="74">VIP tools and</tspan><tspan x="70" dy="74">scam alerts</tspan></text><circle cx="104" cy="1202" r="34" fill="#ffcf2e"/><text x="104" y="1212" text-anchor="middle" fill="#101018" font-family="Arial" font-size="24" font-weight="900">MC</text><text x="156" y="1195" fill="#f7f9ff" font-family="Arial" font-size="26" font-weight="800">Geekish - Mika Circuit</text><text x="156" y="1230" fill="#9ba9c1" font-family="Arial" font-size="24">Read the full quick take at thegeekish.com</text><text x="70" y="1285" fill="#ffcf2e" font-family="Arial" font-size="34" font-weight="900">THEGEEKISH.COM</text></svg>
