<svg xmlns="http://www.w3.org/2000/svg" width="1080" height="1350" viewBox="0 0 1080 1350">
  <defs><linearGradient id="bg" x1="0" y1="0" x2="1" y2="1"><stop stop-color="#17152f"/><stop offset=".5" stop-color="#6c5ce7"/><stop offset="1" stop-color="#ffbe0b"/></linearGradient></defs>
  <rect width="1080" height="1350" fill="url(#bg)"/>
  <g transform="translate(0 30)">
    <rect x="245" y="210" width="590" height="210" rx="82" fill="#f8fbff" opacity=".95"/>
    <circle cx="390" cy="315" r="76" fill="#17152f"/><circle cx="690" cy="315" r="76" fill="#17152f"/>
    <rect x="466" y="295" width="148" height="40" rx="20" fill="#17152f"/>
    <path d="M225 290c-72 28-112 88-118 180" fill="none" stroke="#f8fbff" stroke-width="34" stroke-linecap="round"/>
    <path d="M855 290c72 28 112 88 118 180" fill="none" stroke="#f8fbff" stroke-width="34" stroke-linecap="round"/>
    <g fill="none" stroke="#ffbe0b" stroke-width="18" stroke-linecap="round">
      <path d="M358 525c60 54 304 54 364 0"/><path d="M404 590c45 32 227 32 272 0"/><path d="M470 650c30 16 110 16 140 0"/>
    </g>
    <rect x="300" y="702" width="480" height="72" rx="36" fill="#17152f"/>
    <text x="540" y="751" text-anchor="middle" fill="#ffbe0b" font-family="Arial, Helvetica, sans-serif" font-size="34" font-weight="900">NO CAMERAS</text>
  </g>
  <rect y="812" width="1080" height="538" fill="#17152f"/>
  <text x="70" y="916" fill="#f8fbff" font-family="Arial, Helvetica, sans-serif" font-size="64" font-weight="900"><tspan x="70" dy="0">AI notes</tspan><tspan x="70" dy="80">without face</tspan><tspan x="70" dy="80">cameras</tspan></text>
  <circle cx="104" cy="1202" r="34" fill="#ffbe0b"/>
  <text x="104" y="1212" text-anchor="middle" fill="#17152f" font-family="Arial" font-size="24" font-weight="900">NB</text>
  <text x="156" y="1195" fill="#f8fbff" font-family="Arial" font-size="26" font-weight="800">Geekish - Nova Byte</text>
  <text x="156" y="1230" fill="#b9c5d6" font-family="Arial" font-size="24">Read the sourced quick take at thegeekish.com</text>
  <text x="70" y="1285" fill="#ffbe0b" font-family="Arial" font-size="34" font-weight="900">THEGEEKISH.COM</text>
</svg>
